<?xml version="1.0" standalone="no"?>
<!DOCTYPE svg PUBLIC "-//W3C//DTD SVG 20010904//EN"
 "http://www.w3.org/TR/2001/REC-SVG-20010904/DTD/svg10.dtd">
<svg version="1.0" xmlns="http://www.w3.org/2000/svg"
 width="736.000000pt" height="736.000000pt" viewBox="0 0 736.000000 736.000000"
 preserveAspectRatio="xMidYMid meet">

<g transform="translate(0.000000,736.000000) scale(0.100000,-0.100000)"
fill="#000000" stroke="none">
<path d="M3599 5099 c-53 -4 -111 -12 -130 -18 l-34 -11 40 5 c143 16 367 16
479 1 65 -10 120 -15 123 -13 11 11 -276 48 -352 45 -16 0 -73 -4 -126 -9z"/>
<path d="M3398 5063 c7 -3 16 -2 19 1 4 3 -2 6 -13 5 -11 0 -14 -3 -6 -6z"/>
<path d="M4098 5053 c7 -3 16 -2 19 1 4 3 -2 6 -13 5 -11 0 -14 -3 -6 -6z"/>
<path d="M4175 5030 c11 -5 27 -9 35 -9 9 0 8 4 -5 9 -11 5 -27 9 -35 9 -9 0
-8 -4 5 -9z"/>
<path d="M4335 4972 c265 -115 501 -296 677 -522 15 -19 28 -32 28 -28 0 10
-117 157 -169 211 -134 142 -334 274 -527 351 -132 52 -138 44 -9 -12z"/>
<path d="M2799 4807 c-198 -138 -372 -334 -473 -534 -20 -40 -34 -73 -32 -73
2 0 24 37 50 83 96 170 244 340 419 480 75 61 96 79 85 76 -2 0 -24 -14 -49
-32z"/>
<path d="M4665 4624 c-30 -14 -30 -14 -3 -9 22 4 26 2 21 -11 -3 -9 -13 -14
-23 -11 -13 3 -16 0 -13 -14 3 -11 0 -19 -6 -19 -6 0 -11 -7 -11 -16 0 -14 -1
-14 -16 0 -19 20 -25 20 -18 1 4 -8 11 -15 16 -15 6 0 7 -8 4 -17 -3 -10 4 -5
16 12 34 45 92 102 86 85 -2 -8 5 -22 16 -31 17 -14 20 -28 20 -85 -1 -102
-44 -233 -140 -428 -14 -27 -22 -51 -20 -54 6 -5 46 59 46 75 0 6 3 13 8 15
11 5 80 159 103 231 41 131 35 258 -14 292 -26 18 -34 18 -72 -1z"/>
<path d="M4516 4453 c-6 -14 -5 -15 5 -6 7 7 10 15 7 18 -3 3 -9 -2 -12 -12z"/>
<path d="M4495 4410 c-3 -6 1 -7 9 -4 18 7 21 14 7 14 -6 0 -13 -4 -16 -10z"/>
<path d="M5040 4406 c0 -2 8 -10 18 -17 15 -13 16 -12 3 4 -13 16 -21 21 -21
13z"/>
<path d="M4493 4383 c9 -2 23 -2 30 0 6 3 -1 5 -18 5 -16 0 -22 -2 -12 -5z"/>
<path d="M4442 4278 c-61 -183 -121 -439 -153 -662 -11 -76 -19 -100 -60 -168
-61 -102 -133 -186 -166 -194 -16 -5 -30 -1 -41 10 -31 31 -21 207 24 439 15
73 14 80 -2 98 -9 10 -27 19 -40 19 -26 0 -31 -18 -64 -224 -18 -110 -24 -127
-82 -233 -67 -124 -129 -203 -158 -203 -23 0 -40 52 -40 120 0 60 26 260 51
383 25 128 24 135 -6 143 -44 11 -51 0 -70 -98 -14 -74 -32 -123 -90 -243
-105 -215 -163 -265 -194 -165 -31 97 35 344 114 426 28 30 50 44 67 44 41 0
51 -22 46 -95 -4 -48 -2 -65 7 -65 23 0 34 115 16 163 -14 37 -62 53 -114 38
-76 -23 -139 -104 -190 -246 -59 -165 -193 -422 -262 -503 -90 -105 -96 -27
-23 333 30 150 39 215 35 261 -6 78 -31 132 -72 151 -52 25 -79 6 -163 -112
-4 -6 -8 -17 -10 -25 -2 -8 -7 -16 -12 -18 -5 -2 -6 -10 -3 -18 4 -10 19 6 47
48 22 34 53 69 68 78 25 13 29 13 45 -3 30 -30 22 -161 -22 -377 -26 -129 -38
-213 -39 -278 -1 -91 0 -94 28 -119 71 -60 156 30 293 312 l58 119 6 -69 c13
-164 116 -195 208 -62 15 23 48 79 71 125 24 45 44 81 46 80 1 -2 -2 -39 -8
-82 -17 -129 8 -238 64 -280 22 -16 33 -18 55 -10 36 12 108 103 163 205 l45
84 6 -50 c10 -81 33 -124 75 -141 20 -9 48 -13 61 -9 34 8 114 90 163 166 l40
62 0 -92 c0 -51 5 -112 11 -136 23 -90 98 -138 170 -108 60 24 112 95 210 288
l67 130 17 -58 17 -58 -62 -66 c-62 -66 -120 -168 -120 -210 0 -90 101 -131
200 -80 96 48 121 170 74 364 -5 18 7 30 68 70 40 28 112 71 161 97 52 29 84
52 80 59 -4 6 0 8 10 4 10 -3 17 -2 17 4 0 6 4 8 8 5 4 -2 14 -1 22 5 12 7 12
9 -3 9 -35 0 -188 -79 -325 -168 -29 -19 -55 -32 -58 -29 -3 2 -17 53 -31 111
-24 96 -26 113 -15 162 15 74 32 106 65 122 77 37 125 -50 77 -141 -24 -45
-25 -54 -3 -36 48 40 56 132 16 179 -25 30 -30 32 -80 28 -66 -6 -100 -29
-133 -94 -22 -43 -25 -61 -26 -159 0 -103 -2 -114 -33 -180 -77 -162 -178
-304 -228 -319 -31 -10 -58 7 -74 46 -20 47 -17 240 5 368 18 99 23 111 81
200 34 52 70 109 79 125 54 95 66 118 63 122 -4 4 -15 -12 -113 -162 -32 -49
-59 -92 -61 -94 -26 -37 63 401 102 501 5 13 1 20 -16 27 -13 5 -18 10 -11 10
6 1 12 6 12 11 0 6 -7 10 -16 8 -10 -2 -19 3 -21 10 -3 7 -1 12 4 11 18 -3 33
2 33 11 0 5 -6 7 -14 4 -11 -4 -13 0 -9 15 3 12 3 21 1 21 -3 0 -19 -42 -36
-92z m60 -50 c-2 -10 -6 -18 -7 -18 -1 0 -5 8 -7 18 -3 11 0 19 7 19 7 0 10
-8 7 -19z m272 -890 c10 -37 7 -160 -5 -202 -14 -49 -59 -96 -92 -96 -14 0
-39 12 -56 26 -35 29 -35 54 -2 129 17 39 125 165 141 165 4 0 10 -10 14 -22z"/>
<path d="M5080 4351 c0 -6 4 -13 10 -16 6 -3 7 1 4 9 -7 18 -14 21 -14 7z"/>
<path d="M5172 4183 c44 -97 104 -285 118 -373 13 -77 30 -115 30 -67 0 41
-35 183 -71 282 -30 85 -94 225 -103 225 -3 0 9 -30 26 -67z"/>
<path d="M2266 4155 c-9 -26 -7 -32 5 -12 6 10 9 21 6 23 -2 3 -7 -2 -11 -11z"/>
<path d="M4031 4041 c-50 -50 -43 -143 10 -149 60 -7 98 117 47 152 -29 20
-34 20 -57 -3z"/>
<path d="M2216 4035 c-3 -9 -6 -22 -5 -28 0 -7 5 -1 10 12 5 13 8 26 5 28 -2
2 -6 -3 -10 -12z"/>
<path d="M2187 3938 c-43 -138 -73 -365 -63 -484 l6 -83 -92 -55 c-177 -104
-327 -163 -460 -181 -120 -16 -218 61 -218 172 0 50 36 121 74 143 17 11 36
23 41 28 6 5 16 7 23 4 6 -2 12 1 12 7 0 37 -138 -22 -169 -72 -88 -144 -4
-290 174 -305 72 -5 188 17 283 54 87 35 225 105 282 143 l45 31 7 -33 c3 -17
14 -72 23 -122 87 -477 427 -918 870 -1129 118 -57 272 -110 402 -138 82 -18
131 -22 303 -22 225 0 312 13 506 75 338 108 634 335 839 643 92 139 172 321
216 489 42 163 61 407 43 541 -13 88 -19 45 -16 -101 5 -172 -8 -290 -48 -441
-138 -525 -525 -940 -1037 -1111 -290 -98 -626 -107 -929 -27 -581 154 -1052
681 -1147 1285 -14 92 -14 94 7 113 11 10 31 29 44 41 12 12 26 22 31 22 5 0
13 4 18 8 16 16 -22 2 -67 -26 l-45 -28 -3 113 c-4 134 11 267 44 397 26 104
26 132 1 49z"/>
<path d="M5720 3789 c-21 -7 -19 -8 9 -4 19 3 32 2 28 -1 -3 -3 13 -16 36 -28
123 -65 111 -248 -21 -311 -50 -24 -54 -37 -9 -28 115 22 184 122 163 237 -16
82 -134 160 -206 135z"/>
<path d="M2758 3598 c-9 -19 -13 -40 -9 -47 10 -15 34 39 29 65 -2 12 -8 7
-20 -18z"/>
<path d="M2730 3541 c0 -6 4 -13 10 -16 6 -3 7 1 4 9 -7 18 -14 21 -14 7z"/>
<path d="M2752 2908 c-19 -19 -14 -36 18 -55 40 -23 35 -49 -8 -47 -17 1 -29
-2 -26 -7 10 -17 63 -10 74 10 11 22 -5 45 -40 56 -11 3 -20 10 -20 14 0 16
28 31 45 24 13 -4 16 -3 11 5 -9 15 -39 15 -54 0z"/>
<path d="M2949 2913 c-1 -5 0 -18 1 -30 1 -19 -4 -23 -29 -23 -26 0 -31 4 -31
25 0 14 -4 25 -10 25 -6 0 -10 -27 -10 -60 0 -33 4 -60 10 -60 6 0 10 14 10
30 0 27 3 30 30 30 27 0 29 -3 26 -30 -2 -16 1 -30 5 -30 5 0 9 29 9 65 0 36
-2 65 -5 65 -3 0 -5 -3 -6 -7z"/>
<path d="M4067 2914 c-11 -11 -8 -124 3 -124 6 0 10 14 10 30 0 38 16 38 38 0
9 -16 23 -30 30 -30 9 0 8 6 -3 24 -14 20 -14 28 -3 45 9 16 10 26 2 39 -11
17 -64 29 -77 16z m47 -10 c27 -10 20 -44 -9 -44 -20 0 -25 5 -25 25 0 26 7
29 34 19z"/>
<path d="M4219 2899 c-17 -17 -20 -29 -15 -57 6 -40 19 -52 57 -52 35 0 49 18
49 60 0 63 -50 90 -91 49z m77 -33 c12 -48 -33 -85 -64 -54 -18 18 -15 75 5
87 23 13 51 -3 59 -33z"/>
<path d="M4374 2860 c1 -64 1 -65 31 -68 38 -5 55 19 55 74 0 66 -19 63 -22
-3 -3 -51 -6 -58 -25 -61 -24 -4 -29 9 -36 83 -2 22 -4 11 -3 -25z"/>
<path d="M4517 2913 c-4 -3 -7 -33 -7 -65 l0 -58 43 2 c36 1 38 2 10 5 -27 4
-33 9 -33 28 0 18 6 25 28 28 l27 4 -28 2 c-23 1 -28 5 -25 24 2 18 8 21 31
19 15 -2 27 1 27 7 0 12 -62 15 -73 4z"/>
<path d="M4640 2910 c0 -5 9 -10 20 -10 17 0 20 -7 20 -49 0 -28 5 -53 10 -56
6 -4 10 15 10 49 0 49 2 56 20 56 11 0 20 5 20 10 0 6 -22 10 -50 10 -27 0
-50 -4 -50 -10z"/>
<path d="M3032 2850 c-12 -33 -17 -60 -12 -60 5 0 11 9 15 19 7 22 42 17 62
-8 17 -22 16 -7 -4 56 -9 29 -22 53 -29 53 -7 0 -21 -27 -32 -60z m46 -10 c-2
-4 -10 -5 -19 -1 -13 5 -15 11 -7 31 l10 25 9 -24 c5 -13 8 -27 7 -31z"/>
<path d="M3172 2848 l1 -63 6 50 6 50 28 -47 c15 -27 32 -48 37 -48 6 0 10 27
10 60 0 37 -4 60 -11 60 -7 0 -10 -15 -7 -40 2 -22 0 -40 -4 -40 -4 0 -17 18
-28 40 -11 22 -25 40 -30 40 -6 0 -9 -27 -8 -62z"/>
<path d="M3320 2895 c0 -8 4 -15 9 -15 5 0 21 -20 35 -45 30 -50 36 -54 36
-24 0 11 -4 18 -9 15 -5 -3 -21 14 -35 39 -28 48 -36 54 -36 30z"/>
<path d="M3393 2875 c0 -22 2 -30 4 -17 2 12 2 30 0 40 -3 9 -5 -1 -4 -23z"/>
<path d="M3851 2848 c1 -35 4 -51 6 -36 3 22 10 27 36 30 28 3 32 7 32 32 0
18 -6 31 -15 33 -12 4 -12 3 -2 -5 23 -16 10 -47 -22 -50 -27 -3 -28 -2 -24
27 3 17 1 31 -4 31 -4 0 -7 -28 -7 -62z"/>
<path d="M3990 2850 c0 -33 4 -60 10 -60 6 0 10 27 10 60 0 33 -4 60 -10 60
-6 0 -10 -27 -10 -60z"/>
<path d="M3316 2811 c-4 -7 -5 -15 -2 -18 9 -9 19 4 14 18 -4 11 -6 11 -12 0z"/>
<path d="M4117 2702 c-22 -24 -21 -55 1 -75 21 -19 62 -23 62 -6 0 5 -5 7 -10
4 -17 -10 -49 5 -55 26 -9 28 22 61 48 53 13 -4 17 -2 13 5 -11 17 -41 13 -59
-7z"/>
<path d="M4296 2673 c-18 -53 -20 -77 -5 -50 13 22 45 22 53 1 4 -9 9 -15 11
-12 6 6 -24 96 -35 103 -4 3 -15 -16 -24 -42z m34 -9 c0 -8 -4 -14 -10 -14 -5
0 -10 9 -10 21 0 11 5 17 10 14 6 -3 10 -13 10 -21z"/>
<path d="M3021 2658 c2 -52 2 -52 8 -13 l6 40 27 -38 c29 -43 38 -33 29 33
l-5 35 -6 -35 -5 -35 -20 33 c-11 17 -23 32 -27 32 -4 0 -7 -24 -7 -52z"/>
<path d="M3154 2674 c-8 -20 -13 -43 -11 -52 4 -15 5 -15 6 1 1 10 9 17 22 17
12 0 28 -8 35 -17 9 -13 8 -2 -3 35 -9 28 -21 52 -25 52 -5 0 -16 -16 -24 -36z
m36 -16 c0 -5 -7 -8 -15 -8 -17 0 -18 2 -9 25 5 13 8 14 15 3 5 -7 9 -16 9
-20z"/>
<path d="M3263 2660 c0 -30 2 -43 4 -27 2 15 2 39 0 55 -2 15 -4 2 -4 -28z"/>
<path d="M3813 2665 c0 -27 2 -40 4 -27 3 15 11 22 28 22 17 0 25 -7 28 -22 2
-13 4 0 4 27 0 28 -2 40 -4 28 -3 -16 -11 -23 -28 -23 -17 0 -25 7 -28 23 -2
12 -4 0 -4 -28z"/>
<path d="M3931 2658 c2 -52 2 -52 8 -13 l6 40 18 -32 c28 -52 37 -49 36 9 -2
52 -2 52 -8 13 l-6 -40 -18 32 c-28 52 -37 49 -36 -9z"/>
<path d="M4040 2665 c0 -25 5 -45 10 -45 6 0 10 20 10 45 0 25 -4 45 -10 45
-5 0 -10 -20 -10 -45z"/>
<path d="M4220 2660 c0 -28 5 -50 10 -50 7 0 10 20 9 50 -2 28 -6 50 -11 50
-4 0 -8 -22 -8 -50z"/>
<path d="M4401 2658 c2 -52 2 -52 8 -13 l6 40 23 -37 c13 -21 26 -38 28 -38 2
0 3 24 3 53 -1 46 -2 48 -8 17 l-6 -35 -20 33 c-11 17 -23 32 -27 32 -4 0 -7
-24 -7 -52z"/>
<path d="M3323 2645 c0 -22 2 -30 4 -17 2 12 2 30 0 40 -3 9 -5 -1 -4 -23z"/>
<path d="M3691 2664 c0 -11 3 -14 6 -6 3 7 2 16 -1 19 -3 4 -6 -2 -5 -13z"/>
</g>
</svg>
